<svg width="121" height="120" viewBox="0 0 121 120" fill="none" xmlns="http://www.w3.org/2000/svg">
<path d="M69.5332 11L70.6846 13.0156L114.685 90.0156L115.824 92.0098L114.677 93.999L107.177 106.999L106.022 109H14.4014L13.2471 106.999L5.74707 93.999L4.60645 92.0205L5.72949 90.0322L49.2295 13.0322L50.3779 11H69.5332Z" fill="white" stroke="white" stroke-width="8"/>
<path d="M67.374 15L110.949 91.8711L103.558 105H16.4619L9.21191 92.0156L52.6396 15H67.374ZM14.9443 92.0273L17.9424 97.3955L54.0859 33.4541L62.9473 49.0498L62.917 49.1025L79.7686 79.0293H85.8564L54.0967 22.5928L14.9443 92.0273ZM94.4072 84.0293H43.1807L40.1592 89.375H103.787L64.4609 20H58.375L94.4072 84.0293ZM46.0059 79.0293H74.0293L60.043 54.1895L46.0059 79.0293Z" fill="black"/>
</svg>
